<svg id="Capa_1" enable-background="new 0 0 512 512" height="512" viewBox="0 0 512 512" width="512" xmlns="http://www.w3.org/2000/svg"><g><g><path d="m440 432v-208l-184-176-184 176v208l-16 72h400z" fill="#ffedbc"/></g><g><path d="m256 344c-44.859 0-80 28.109-80 64v96h160v-96c0-35.89-35.141-64-80-64z" fill="#ffb080"/></g><g><path d="m72 232h368v32h-368z" fill="#ffb080"/></g><g><path d="m440 232-184-184-184 184h40l144-138 144 138z" fill="#ffb080"/></g><g><path d="m440 288c-13.255 0-24 10.745-24 24v120.008c0 1.747.191 3.49.57 5.195l14.844 66.797h24.586l-16-72z" fill="#fff"/></g><path d="m480 496h-17.583l-14.417-64.878v-197.251l-4-9.871h-40.76l-135.742-131.5 16.064-15.562c3.173-3.074 3.254-8.139.18-11.312s-8.139-3.254-11.312-.18l-16.43 15.916-16.063-15.562c-3.173-3.073-8.238-2.993-11.312.18s-2.994 8.238.18 11.312l15.697 15.208-135.742 131.5h-40.76l-4 5.418v201.704l-14.417 64.878h-17.583c-4.418 0-8 3.582-8 8s3.582 8 8 8h448c4.418 0 8-3.582 8-8s-3.581-8-8-8zm-224-392.361 124.244 120.361h-248.488zm-176 136.361h352v16h-352zm0 32h352v32h-352zm88 224h-102.027l13.837-62.265c.126-.57.19-1.152.19-1.735v-16h88zm160 0h-144v-88c0-31.402 31.626-56 72-56s72 24.598 72 56zm-72-160c-46.034 0-82.75 27.527-87.473 64h-88.527v-80h352v80h-88.527c-4.723-36.473-41.439-64-87.473-64zm88 160v-80h88v16c0 .583.064 1.166.19 1.735l13.837 62.265z" fill="#d97779"/><g fill="#1e2e45"><path d="m376 496h-64v-88c0-22.43-24.598-40-56-40s-56 17.57-56 40v88h-134.027l13.837-62.265c.126-.57.19-1.152.19-1.735v-88c0-4.418-3.582-8-8-8s-8 3.582-8 8v87.122l-14.417 64.878h-17.583c-4.418 0-8 3.582-8 8s3.582 8 8 8h344c4.418 0 8-3.582 8-8s-3.581-8-8-8zm-160-88c0-13.009 18.318-24 40-24s40 10.991 40 24v88h-80z"/><path d="m477.567 250.254-210.069-203.504 34.069-33.004c3.173-3.074 3.254-8.139.18-11.312s-8.139-3.254-11.312-.18l-34.435 33.358-34.433-33.358c-3.173-3.073-8.237-2.993-11.312.18-3.074 3.173-2.994 8.238.18 11.312l34.069 33.004-210.07 203.504c-3.173 3.074-3.254 8.139-.18 11.312 1.569 1.62 3.657 2.434 5.747 2.434 2.004 0 4.012-.749 5.565-2.254l210.434-203.857 210.434 203.858c1.554 1.505 3.561 2.254 5.565 2.254 2.09 0 4.178-.814 5.747-2.434 3.074-3.174 2.994-8.239-.179-11.313z"/></g></g></svg>